#!OML:ASF E:\motion texture\Top Level 1\Subject 1\Session 1\male.ASF
:FULLY-SPECIFIED
:DEGREES
112
root 17.1098 17.6036 3.03968 94.8677 -80.3086 -85.5656
lowerback -3.2971 2.61911 7.27773
upperback -1.32616 3.12661 3.4884
thorax 0.675958 1.50578 -0.347042
lowerneck -11.6283 -2.1241 -4.3386
upperneck 16.9794 -2.52182 1.69752
head 7.19773 -1.38609 1.01917
rclavicle -2.52208e-014 -2.00773e-014
rhumerus -23.0329 -16.1089 -71.686
rradius 22.4119
rwrist 14.2836
rhand -13.9118 -29.5987
rfingers 7.12502
rthumb 12.2141 -59.222
lclavicle -2.52208e-014 -2.00773e-014
lhumerus -54.0007 37.4853 43.9819
lradius 16.2852
lwrist -40.1827
lhand -10.4143 22.1313
lfingers 7.12502
lthumb 15.5846 51.5234
rfemur 1.43764 4.652 35.3849
rtibia 16.4099
rfoot -16.0209 -6.68015
rtoes 2.3463
lfemur -33.0688 -1.49078 -3.70917
ltibia 12.7732
lfoot -5.65678 7.58494
ltoes -15.0988
113
root 16.9681 17.5906 3.06764 96.2607 -80.2581 -87.0004
lowerback -3.22398 2.61224 7.35974
upperback -1.35472 3.1249 3.45564
thorax 0.611371 1.50242 -0.430126
lowerneck -11.7508 -2.07695 -4.27267
upperneck 17.0983 -2.46742 1.70059
head 7.25529 -1.35628 1.01337
rclavicle 1.91082e-014 -4.29375e-014
rhumerus -22.2858 -15.8208 -71.8805
rradius 22.9084
rwrist 13.5945
rhand -14.1068 -29.9586
rfingers 7.12502
rthumb 12.0261 -59.5931
lclavicle 1.91082e-014 -4.29375e-014
lhumerus -53.1941 37.6736 45.2914
lradius 16.1442
lwrist -40.364
lhand -10.6455 22.1589
lfingers 7.12502
lthumb 15.362 51.5682
rfemur 1.6514 4.78038 35.3479
rtibia 17.0799
rfoot -16.1813 -6.57729
rtoes 1.14969
lfemur -33.0583 -1.51669 -3.92127
ltibia 13.8143
lfoot -5.26863 7.39585
ltoes -14.5461
114
root 16.8236 17.5786 3.09631 97.597 -80.2189 -88.4058
lowerback -3.06316 2.5963 7.41808
upperback -1.39793 3.12281 3.42103
thorax 0.481303 1.49698 -0.506661
lowerneck -11.9962 -2.03615 -4.20716
upperneck 17.3119 -2.41707 1.70017
head 7.36577 -1.32882 1.00502
rclavicle 8.22472e-015 -5.36719e-015
rhumerus -21.574 -15.5168 -72.0862
rradius 23.4081
rwrist 12.9238
rhand -14.3002 -30.2247
rfingers 7.12502
rthumb 11.8396 -59.87
lclavicle 8.22472e-015 -5.36719e-015
lhumerus -52.3738 37.9047 46.5891
lradius 15.9822
lwrist -40.627
lhand -10.8937 22.1468
lfingers 7.12502
lthumb 15.1229 51.5743
rfemur 1.8577 4.93305 35.3012
rtibia 17.8328
rfoot -16.3043 -6.51256
rtoes -0.160069
lfemur -32.9696 -1.70914 -4.09515
ltibia 14.7534
lfoot -4.70325 7.21433
ltoes -13.9478
115
root 16.6759 17.5683 3.12602 99.0834 -80.2175 -89.9846
lowerback -2.92736 2.59057 7.42965
upperback -1.43503 3.13351 3.37294
thorax 0.370711 1.49897 -0.569442
lowerneck -12.1803 -1.99661 -4.13366
upperneck 17.5135 -2.37376 1.69925
head 7.46183 -1.30475 0.99513
rclavicle 4.75841e-015 -1.41137e-014
rhumerus -20.9134 -15.208 -72.2977
rradius 23.9109
rwrist 12.2615
rhand -14.5166 -30.3104
rfingers 7.12502
rthumb 11.631 -59.9676
lclavicle 4.75841e-015 -1.41137e-014
lhumerus -51.5221 38.1496 47.8973
lradius 15.7973
lwrist -40.9636
lhand -11.1674 22.0654
lfingers 7.12502
lthumb 14.8593 51.5126
rfemur 2.04475 5.12875 35.2096
rtibia 18.6835
rfoot -16.381 -6.46822
rtoes -1.57425
lfemur -32.7823 -2.04809 -4.2557
ltibia 15.4897
lfoot -3.94825 7.06617
ltoes -13.3777
116
root 16.5267 17.5603 3.15605 100.608 -80.2957 -91.602
lowerback -2.82429 2.58472 7.34273
upperback -1.47965 3.14509 3.30174
thorax 0.266952 1.50244 -0.600582
lowerneck -12.288 -1.96265 -4.05606
upperneck 17.6948 -2.34385 1.7013
head 7.53835 -1.28707 0.984879
rclavicle -2.4202e-014 -3.22031e-014
rhumerus -20.3149 -14.9103 -72.5117
rradius 24.4181
rwrist 11.6179
rhand -14.7459 -30.2565
rfingers 7.12502
rthumb 11.4098 -59.926
lclavicle -2.4202e-014 -3.22031e-014
lhumerus -50.644 38.4032 49.2113
lradius 15.5876
lwrist -41.3739
lhand -11.4775 21.9997
lfingers 7.12502
lthumb 14.5604 51.4687
rfemur 2.17715 5.34641 35.0251
rtibia 19.6329
rfoot -16.3808 -6.45104
rtoes -3.09855
lfemur -32.5546 -2.50595 -4.46743
ltibia 16.0269
lfoot -3.01556 6.9251
ltoes -12.8965
117
root 16.3762 17.5555 3.18608 102.178 -80.476 -93.26
lowerback -2.78323 2.5735 7.13189
upperback -1.50608 3.14649 3.20628
thorax 0.211088 1.50396 -0.585549
lowerneck -12.3642 -1.93697 -3.99095
upperneck 17.8502 -2.32526 1.70968
head 7.60151 -1.27493 0.977927
rclavicle 3.76324e-014 2.62396e-014
rhumerus -19.7261 -14.6393 -72.7372
rradius 24.9186
rwrist 11.0117
rhand -14.9742 -30.1033
rfingers 7.12502
rthumb 11.1896 -59.7849
lclavicle 3.76324e-014 2.62396e-014
lhumerus -49.7092 38.7113 50.545
lradius 15.3495
lwrist -41.8586
lhand -11.8174 21.942
lfingers 7.12502
lthumb 14.2329 51.4343
rfemur 2.23556 5.56923 34.7164
rtibia 20.6956
rfoot -16.3042 -6.43569
rtoes -4.62658
lfemur -32.3054 -3.0476 -4.77166
ltibia 16.3943
lfoot -1.96511 6.80798
ltoes -12.429
118
root 16.2236 17.5548 3.21624 103.886 -80.7562 -95.0589
lowerback -2.80351 2.56103 6.81014
upperback -1.52156 3.14369 3.07933
thorax 0.196692 1.50603 -0.538752
lowerneck -12.3649 -1.91942 -3.93644
upperneck 17.9649 -2.32122 1.73001
head 7.63862 -1.26954 0.975791
rclavicle 4.89507e-015 9.93923e-016
rhumerus -19.1791 -14.4063 -72.9739
rradius 25.4119
rwrist 10.4657
rhand -15.1816 -30.0193
rfingers 7.12502
rthumb 10.9896 -59.7116
lclavicle 4.89507e-015 9.93923e-016
lhumerus -48.7211 39.0245 51.907
lradius 15.0904
lwrist -42.3778
lhand -12.1812 21.9441
lfingers 7.12502
lthumb 13.8824 51.4607
rfemur 2.21877 5.76189 34.2673
rtibia 21.8856
rfoot -16.1402 -6.38097
rtoes -6.12501
lfemur -32.0157 -3.62969 -5.18646
ltibia 16.6362
lfoot -0.887237 6.72889
ltoes -11.811
119
root 16.0693 17.5582 3.24636 105.571 -81.1104 -96.8384
lowerback -2.79535 2.53186 6.41131
upperback -1.54131 3.12475 2.92938
thorax 0.158396 1.50031 -0.47491
lowerneck -12.4497 -1.9131 -3.90789
upperneck 18.1256 -2.32763 1.76725
head 7.70686 -1.26892 0.981754
rclavicle -5.10628e-014 -5.79457e-014
rhumerus -18.6621 -14.1961 -73.2332
rradius 25.8961
rwrist 9.98298
rhand -15.405 -30.0216
rfingers 7.12502
rthumb 10.7741 -59.7253
lclavicle -5.10628e-014 -5.79457e-014
lhumerus -47.6631 39.3282 53.3239
lradius 14.8205
lwrist -42.892
lhand -12.5517 21.9989
lfingers 7.12502
lthumb 13.5253 51.5397
rfemur 2.10911 5.87796 33.7023
rtibia 23.2177
rfoot -15.8825 -6.26723
rtoes -7.53657
lfemur -31.7143 -4.18298 -5.71477
ltibia 16.8667
lfoot 0.116255 6.61748
ltoes -10.8345
120
root 15.9136 17.5654 3.27632 107.176 -81.4804 -98.5467
lowerback -2.76851 2.49095 6.00249
upperback -1.56037 3.09181 2.77083
thorax 0.109766 1.48757 -0.415323
lowerneck -12.5827 -1.91775 -3.89726
upperneck 18.3058 -2.34535 1.81314
head 7.79099 -1.2737 0.992001
rclavicle 8.85834e-015 3.67752e-015
rhumerus -18.18 -14.0095 -73.5162
rradius 26.3682
rwrist 9.57384
rhand -15.6095 -30.1721
rfingers 7.12502
rthumb 10.5769 -59.8859
lclavicle 8.85834e-015 3.67752e-015
lhumerus -46.5232 39.5907 54.8173
lradius 14.5504
lwrist -43.3827
lhand -12.9263 22.1137
lfingers 7.12502
lthumb 13.1642 51.6781
rfemur 1.90029 5.89081 33.0806
rtibia 24.7033
rfoot -15.5049 -6.06819
rtoes -8.79582
lfemur -31.3949 -4.64015 -6.31119
ltibia 17.1579
lfoot 0.967595 6.42056
ltoes -9.44634
121
root 15.7568 17.5754 3.30624 108.578 -81.8044 -100.066
lowerback -2.73251 2.44225 5.65978
upperback -1.581 3.04625 2.61814
thorax 0.0570799 1.46778 -0.386653
lowerneck -12.7024 -1.92759 -3.89228
upperneck 18.4753 -2.37009 1.8609
head 7.8697 -1.28194 1.0032
rclavicle -2.77553e-014 -1.78906e-015
rhumerus -17.7513 -13.8233 -73.8242
rradius 26.829
rwrist 9.21765
rhand -15.8219 -30.3263
rfingers 7.12502
rthumb 10.372 -60.0505
lclavicle -2.77553e-014 -1.78906e-015
lhumerus -45.3183 39.789 56.3747
lradius 14.2886
lwrist -43.8571
lhand -13.3005 22.2092
lfingers 7.12502
lthumb 12.8035 51.7966
rfemur 1.58176 5.78602 32.4705
rtibia 26.3564
rfoot -14.9781 -5.77407
rtoes -9.87309
lfemur -31.0531 -4.96014 -6.90859
ltibia 17.5493
lfoot 1.6327 6.13916
ltoes -7.54451
122
root 15.5997 17.5874 3.33642 109.685 -82.0384 -101.31
lowerback -2.6419 2.3867 5.42865
upperback -1.61926 2.99193 2.48779
thorax -0.0401316 1.44122 -0.399513
lowerneck -12.823 -1.93803 -3.88217
upperneck 18.6592 -2.39407 1.8913
head 7.95331 -1.2913 1.00786
rclavicle 1.67103e-014 8.54774e-015
rhumerus -17.3932 -13.6144 -74.1504
rradius 27.2787
rwrist 8.90258
rhand -16.0387 -30.4911
rfingers 7.12502
rthumb 10.1629 -60.2257
lclavicle 1.67103e-014 8.54774e-015
lhumerus -44.0687 39.874 58.0102
lradius 14.0573
lwrist -44.2761
lhand -13.6536 22.2825
lfingers 7.12502
lthumb 12.4631 51.8909
rfemur 1.15373 5.57609 31.9256
rtibia 28.1755
rfoot -14.2551 -5.39519
rtoes -10.7378
lfemur -30.6767 -5.12682 -7.44934
ltibia 18.0285
lfoot 2.10935 5.80548
ltoes -5.33916
